Fauna-HTML+CE.ufo
<glyph name="numbersign" format="1">
  <advance width="1632"/>
  <unicode hex="0023"/>
  <outline>
    <contour>
      <point x="1278" y="1161" type="line"/>
      <point x="1509" y="1161" type="line"/>
      <point x="1489" y="1036" type="line"/>
      <point x="1255" y="1036" type="line"/>
      <point x="1165" y="526" type="line"/>
      <point x="1399" y="526" type="line"/>
      <point x="1376" y="401" type="line"/>
      <point x="1141" y="401" type="line"/>
      <point x="1049" y="-121" type="line"/>
      <point x="885" y="-121" type="line"/>
      <point x="981" y="401" type="line"/>
      <point x="516" y="401" type="line"/>
      <point x="422" y="-121" type="line"/>
      <point x="260" y="-121" type="line"/>
      <point x="354" y="401" type="line"/>
      <point x="121" y="401" type="line"/>
      <point x="143" y="526" type="line"/>
      <point x="377" y="526" type="line"/>
      <point x="469" y="1036" type="line"/>
      <point x="233" y="1036" type="line"/>
      <point x="254" y="1161" type="line"/>
      <point x="492" y="1161" type="line"/>
      <point x="588" y="1683" type="line"/>
      <point x="750" y="1683" type="line"/>
      <point x="653" y="1161" type="line"/>
      <point x="1118" y="1161" type="line"/>
      <point x="1212" y="1683" type="line"/>
      <point x="1376" y="1683" type="line"/>
    </contour>
    <contour>
      <point x="631" y="1036" type="line"/>
      <point x="539" y="526" type="line"/>
      <point x="1004" y="526" type="line"/>
      <point x="1094" y="1036" type="line"/>
    </contour>
  </outline>
</glyph>
<glyph name="quotesingle" format="1">
  <advance width="479"/>
  <unicode hex="0027"/>
  <outline>
    <contour>
      <point x="287" y="1004" type="line"/>
      <point x="195" y="1004" type="line"/>
      <point x="156" y="1495" type="line"/>
      <point x="324" y="1495" type="line"/>
    </contour>
  </outline>
</glyph>
<glyph name="parenleft" format="1">
  <advance width="600"/>
  <unicode hex="0028"/>
  <outline>
    <contour>
      <point x="561" y="-39" type="qcurve"/>
      <point x="561" y="-152" type="line"/>
      <point x="461" y="-102"/>
      <point x="291" y="61"/>
      <point x="228.5" y="175.0" type="qcurve" smooth="yes" name="inserted"/>
      <point x="166" y="289"/>
      <point x="96" y="578"/>
      <point x="96" y="748" type="qcurve" smooth="yes"/>
      <point x="96" y="918"/>
      <point x="166" y="1204"/>
      <point x="228.5" y="1318.0" type="qcurve" smooth="yes" name="inserted"/>
      <point x="291" y="1432"/>
      <point x="461" y="1595"/>
      <point x="561" y="1642" type="qcurve"/>
      <point x="561" y="1532" type="line"/>
      <point x="420" y="1415"/>
      <point x="258" y="1020"/>
      <point x="258" y="748" type="qcurve" smooth="yes"/>
      <point x="258" y="475"/>
      <point x="420" y="78"/>
    </contour>
  </outline>
</glyph>
<glyph name="parenright" format="1">
  <advance width="600"/>
  <unicode hex="0029"/>
  <outline>
    <contour>
      <point x="39" y="-152" type="qcurve"/>
      <point x="39" y="-39" type="line"/>
      <point x="180" y="78"/>
      <point x="342" y="475"/>
      <point x="342" y="748" type="qcurve" smooth="yes"/>
      <point x="342" y="1020"/>
      <point x="180" y="1415"/>
      <point x="39" y="1532" type="qcurve"/>
      <point x="39" y="1642" type="line"/>
      <point x="139" y="1595"/>
      <point x="309" y="1432"/>
      <point x="371.5" y="1318.0" type="qcurve" smooth="yes" name="inserted"/>
      <point x="434" y="1204"/>
      <point x="504" y="918"/>
      <point x="504" y="748" type="qcurve" smooth="yes"/>
      <point x="504" y="578"/>
      <point x="434" y="289"/>
      <point x="371.5" y="175.0" type="qcurve" smooth="yes" name="inserted"/>
      <point x="309" y="61"/>
      <point x="139" y="-102"/>
    </contour>
  </outline>
</glyph>
<glyph name="asterisk" format="1">
  <advance width="1102"/>
  <unicode hex="002A"/>
  <outline>
    <contour>
      <point x="631" y="1575" type="line"/>
      <point x="602" y="1196" type="line"/>
      <point x="954" y="1339" type="line"/>
      <point x="1004" y="1190" type="line"/>
      <point x="631" y="1098" type="line"/>
      <point x="874" y="817" type="line"/>
      <point x="745" y="719" type="line"/>
      <point x="549" y="1032" type="line"/>
      <point x="356" y="719" type="line"/>
      <point x="227" y="811" type="line"/>
      <point x="469" y="1098" type="line"/>
      <point x="98" y="1190" type="line"/>
      <point x="147" y="1339" type="line"/>
      <point x="500" y="1196" type="line"/>
      <point x="471" y="1575" type="line"/>
    </contour>
  </outline>
</glyph>
<glyph name="slash" format="1">
  <advance width="618"/>
  <unicode hex="002F"/>
  <outline>
    <contour>
      <point x="127" y="-217" type="line"/>
      <point x="0" y="-217" type="line"/>
      <point x="492" y="1587" type="line"/>
      <point x="618" y="1587" type="line"/>
    </contour>
  </outline>
</glyph>
<glyph name="three" format="1">
  <advance width="1278"/>
  <unicode hex="0033"/>
  <outline>
    <contour>
      <point x="563" y="811" type="line" smooth="yes"/>
      <point x="637" y="811"/>
      <point x="768" y="850"/>
      <point x="817.0" y="887.0" type="qcurve" smooth="yes" name="inserted"/>
      <point x="866" y="924"/>
      <point x="926" y="1032"/>
      <point x="926" y="1104" type="qcurve" smooth="yes"/>
      <point x="926" y="1247"/>
      <point x="758" y="1401"/>
      <point x="610" y="1401" type="qcurve" smooth="yes"/>
      <point x="463" y="1401"/>
      <point x="301" y="1231"/>
      <point x="301" y="1090" type="qcurve"/>
      <point x="156" y="1090" type="line"/>
      <point x="156" y="1288"/>
      <point x="395" y="1526"/>
      <point x="616" y="1526" type="qcurve" smooth="yes"/>
      <point x="840" y="1526"/>
      <point x="1087" y="1309"/>
      <point x="1087" y="1110" type="qcurve" smooth="yes"/>
      <point x="1087" y="993"/>
      <point x="958" y="809"/>
      <point x="834" y="766" type="qcurve"/>
      <point x="903" y="748"/>
      <point x="1012" y="678"/>
      <point x="1048.5" y="630.0" type="qcurve" smooth="yes" name="inserted"/>
      <point x="1085" y="582"/>
      <point x="1122" y="465"/>
      <point x="1122" y="403" type="qcurve" smooth="yes"/>
      <point x="1122" y="299"/>
      <point x="1051" y="139"/>
      <point x="985.5" y="84.0" type="qcurve" smooth="yes" name="inserted"/>
      <point x="920" y="29"/>
      <point x="731" y="-29"/>
      <point x="614" y="-29" type="qcurve" smooth="yes"/>
      <point x="498" y="-29"/>
      <point x="319" y="33"/>
      <point x="259.0" y="89.0" type="qcurve" smooth="yes" name="inserted"/>
      <point x="199" y="145"/>
      <point x="137" y="301"/>
      <point x="137" y="395" type="qcurve" smooth="yes"/>
      <point x="137" y="408" type="line"/>
      <point x="285" y="408" type="line"/>
      <point x="285" y="395" type="line" smooth="yes"/>
      <point x="285" y="264"/>
      <point x="451" y="94"/>
      <point x="612" y="94" type="qcurve" smooth="yes"/>
      <point x="774" y="94"/>
      <point x="961" y="256"/>
      <point x="961" y="399" type="qcurve" smooth="yes"/>
      <point x="961.0" y="550.5" name="inserted"/>
      <point x="763.0" y="702.0"/>
      <point x="565" y="702" type="qcurve" smooth="yes"/>
      <point x="412" y="702" type="line"/>
      <point x="412" y="811" type="line"/>
    </contour>
  </outline>
</glyph>
<glyph name="equal" format="1">
  <advance width="1196"/>
  <unicode hex="003D"/>
  <outline>
    <contour>
      <point x="1001" y="889" type="line"/>
      <point x="195" y="889" type="line"/>
      <point x="195" y="1022" type="line"/>
      <point x="1001" y="1022" type="line"/>
    </contour>
    <contour>
      <point x="1001" y="473" type="line"/>
      <point x="195" y="473" type="line"/>
      <point x="195" y="606" type="line"/>
      <point x="1001" y="606" type="line"/>
    </contour>
  </outline>
</glyph>
<glyph name="B" format="1">
  <advance width="1319"/>
  <unicode hex="0042"/>
  <outline>
    <contour>
      <point x="150.0" y="1495.0" type="line"/>
      <point x="686.0" y="1495.0" type="line" smooth="yes"/>
      <point x="909.0" y="1495.0"/>
      <point x="1155.0" y="1284.0"/>
      <point x="1155.0" y="1104.0" type="qcurve" smooth="yes"/>
      <point x="1155.0" y="973.0"/>
      <point x="1020.0" y="793.0"/>
      <point x="897.0" y="768.0" type="qcurve"/>
      <point x="1051.0" y="748.0"/>
      <point x="1221.0" y="553.0"/>
      <point x="1221.0" y="410.0" type="qcurve" smooth="yes"/>
      <point x="1221.0" y="205.0" name="inserted"/>
      <point x="990" y="0"/>
      <point x="758.0" y="0.0" type="qcurve" smooth="yes"/>
      <point x="276" y="0" type="line"/>
      <point x="276.0" y="0.0"/>
      <point x="279.0" y="1372.0"/>
      <point x="279.0" y="1372.0" type="qcurve"/>
      <point x="150.0" y="1389.0" type="line"/>
    </contour>
    <contour>
      <point x="442.0" y="1382.0" type="line"/>
      <point x="442.0" y="113.0" type="line"/>
      <point x="754.0" y="113.0" type="line" smooth="yes"/>
      <point x="906.5" y="113.0" name="inserted"/>
      <point x="1059.0" y="261.5"/>
      <point x="1059.0" y="410.0" type="qcurve" smooth="yes"/>
      <point x="1059.0" y="551.0"/>
      <point x="879.0" y="707.0"/>
      <point x="713.0" y="707.0" type="qcurve" smooth="yes"/>
      <point x="444.0" y="706.0" type="line"/>
      <point x="444.0" y="818.0" type="line"/>
      <point x="713.0" y="819.0" type="line" smooth="yes"/>
      <point x="853.0" y="819.0" name="inserted"/>
      <point x="993.0" y="961.5"/>
      <point x="993.0" y="1104.0" type="qcurve" smooth="yes"/>
      <point x="993.0" y="1233.0"/>
      <point x="831.0" y="1382.0"/>
      <point x="676.0" y="1382.0" type="qcurve" smooth="yes"/>
    </contour>
  </outline>
</glyph>
<glyph name="D" format="1">
  <advance width="1456"/>
  <unicode hex="0044"/>
  <outline>
    <contour>
      <point x="150" y="1495" type="line"/>
      <point x="711" y="1495" type="line" smooth="yes"/>
      <point x="1018" y="1495"/>
      <point x="1339" y="1114"/>
      <point x="1339" y="748" type="qcurve" smooth="yes"/>
      <point x="1339" y="381"/>
      <point x="1018" y="-2"/>
      <point x="711" y="0" type="qcurve" smooth="yes"/>
      <point x="277" y="3" type="line"/>
      <point x="277.0" y="3.0"/>
      <point x="276.0" y="1372.0"/>
      <point x="276" y="1372" type="qcurve"/>
      <point x="154" y="1372" type="line"/>
    </contour>
    <contour>
      <point x="440" y="1382" type="line"/>
      <point x="440" y="113" type="line"/>
      <point x="719" y="113" type="line" smooth="yes"/>
      <point x="942" y="113"/>
      <point x="1178" y="438"/>
      <point x="1178" y="748" type="qcurve" smooth="yes"/>
      <point x="1178" y="1057"/>
      <point x="942" y="1382"/>
      <point x="719" y="1382" type="qcurve" smooth="yes"/>
    </contour>
  </outline>
</glyph>
<glyph name="E" format="1">
  <advance width="1284"/>
  <unicode hex="0045"/>
  <outline>
    <contour>
      <point x="150.0" y="1495.0" type="line"/>
      <point x="1053.0" y="1495.0" type="line" smooth="yes"/>
      <point x="1083.5" y="1495.0" name="inserted"/>
      <point x="1114.0" y="1463.5"/>
      <point x="1114.0" y="1432.0" type="qcurve" smooth="yes"/>
      <point x="1114" y="1216" type="line"/>
      <point x="994" y="1216" type="line"/>
      <point x="993.0" y="1382.0" type="line"/>
      <point x="440.0" y="1382.0" type="line"/>
      <point x="440.0" y="815.0" type="line"/>
      <point x="1022.0" y="815.0" type="line"/>
      <point x="1022.0" y="702.0" type="line"/>
      <point x="440.0" y="702.0" type="line"/>
      <point x="440.0" y="111.0" type="line"/>
      <point x="1012.0" y="111.0" type="line"/>
      <point x="1012.0" y="258.0" type="line"/>
      <point x="1135.0" y="258.0" type="line"/>
      <point x="1135.0" y="63.0" type="line" smooth="yes"/>
      <point x="1135.0" y="31.5" name="inserted"/>
      <point x="1103.0" y="0.0"/>
      <point x="1071.0" y="0.0" type="qcurve" smooth="yes"/>
      <point x="278.0" y="0.0" type="line"/>
      <point x="278.0" y="0.0"/>
      <point x="276.0" y="1372.0"/>
      <point x="276.0" y="1372.0" type="qcurve"/>
      <point x="150.0" y="1371.0" type="line"/>
    </contour>
  </outline>
</glyph>
<glyph name="G" format="1">
  <advance width="1305"/>
  <unicode hex="0047"/>
  <outline>
    <contour>
      <point x="686" y="-29" type="qcurve" smooth="yes"/>
      <point x="522" y="-29"/>
      <point x="307" y="113"/>
      <point x="242.5" y="226.5" type="qcurve" smooth="yes" name="inserted"/>
      <point x="178" y="340"/>
      <point x="125" y="625"/>
      <point x="125" y="766" type="qcurve" smooth="yes"/>
      <point x="125" y="897"/>
      <point x="178" y="1167"/>
      <point x="245.5" y="1276.5" type="qcurve" smooth="yes" name="inserted"/>
      <point x="313" y="1386"/>
      <point x="541" y="1524"/>
      <point x="715" y="1524" type="qcurve" smooth="yes"/>
      <point x="826.5" y="1524.0" name="inserted"/>
      <point x="1063.0" y="1465.5"/>
      <point x="1188" y="1407" type="qcurve"/>
      <point x="1133" y="1284" type="line"/>
      <point x="1026.5" y="1341.5" name="inserted"/>
      <point x="817.5" y="1399.0"/>
      <point x="715" y="1399" type="qcurve" smooth="yes"/>
      <point x="588" y="1399"/>
      <point x="424" y="1288"/>
      <point x="376.0" y="1199.0" type="qcurve" smooth="yes" name="inserted"/>
      <point x="328" y="1110"/>
      <point x="289" y="887"/>
      <point x="289" y="772" type="qcurve" smooth="yes"/>
      <point x="289" y="623"/>
      <point x="334" y="373"/>
      <point x="383.0" y="284.0" type="qcurve" smooth="yes" name="inserted"/>
      <point x="432" y="195"/>
      <point x="590" y="96"/>
      <point x="705" y="96" type="qcurve" smooth="yes"/>
      <point x="778" y="96"/>
      <point x="907" y="139"/>
      <point x="953.0" y="185.0" type="qcurve" smooth="yes" name="inserted"/>
      <point x="999" y="231"/>
      <point x="1053" y="369"/>
      <point x="1053" y="465" type="qcurve" smooth="yes"/>
      <point x="1053" y="637" type="line"/>
      <point x="782" y="637" type="line"/>
      <point x="782" y="770" type="line"/>
      <point x="1135" y="770" type="line" smooth="yes"/>
      <point x="1171.5" y="770.0" name="inserted"/>
      <point x="1208.0" y="739.5"/>
      <point x="1208" y="709" type="qcurve" smooth="yes"/>
      <point x="1208" y="459" type="line" smooth="yes"/>
      <point x="1208" y="328"/>
      <point x="1133" y="141"/>
      <point x="1064.0" y="83.0" type="qcurve" smooth="yes" name="inserted"/>
      <point x="995" y="25"/>
      <point x="803" y="-29"/>
    </contour>
  </outline>
</glyph>
<glyph name="O" format="1">
  <advance width="1448"/>
  <unicode hex="004F"/>
  <outline>
    <contour>
      <point x="127" y="748" type="qcurve" smooth="yes"/>
      <point x="127" y="934"/>
      <point x="209" y="1223"/>
      <point x="285.5" y="1322.0" type="qcurve" smooth="yes" name="inserted"/>
      <point x="362" y="1421"/>
      <point x="584" y="1524"/>
      <point x="723" y="1524" type="qcurve" smooth="yes"/>
      <point x="1006" y="1524"/>
      <point x="1323" y="1122"/>
      <point x="1323" y="748" type="qcurve" smooth="yes"/>
      <point x="1323" y="373"/>
      <point x="1006" y="-29"/>
      <point x="723" y="-29" type="qcurve" smooth="yes"/>
      <point x="584" y="-29"/>
      <point x="362" y="74"/>
      <point x="285.5" y="173.0" type="qcurve" smooth="yes" name="inserted"/>
      <point x="209" y="272"/>
      <point x="127" y="561"/>
    </contour>
    <contour>
      <point x="1159" y="748" type="qcurve" smooth="yes"/>
      <point x="1159" y="1063"/>
      <point x="928" y="1399"/>
      <point x="723" y="1399" type="qcurve" smooth="yes"/>
      <point x="518" y="1399"/>
      <point x="289" y="1063"/>
      <point x="289" y="748" type="qcurve" smooth="yes"/>
      <point x="289" y="432"/>
      <point x="518" y="96"/>
      <point x="723" y="96" type="qcurve" smooth="yes"/>
      <point x="928" y="96"/>
      <point x="1159" y="432"/>
    </contour>
  </outline>
</glyph>
<glyph name="P" format="1">
  <advance width="1268"/>
  <unicode hex="0050"/>
  <outline>
    <contour>
      <point x="431" y="686" type="line"/>
      <point x="690" y="690" type="line" smooth="yes"/>
      <point x="850.0" y="690.0" name="inserted"/>
      <point x="1010.0" y="863.0"/>
      <point x="1010" y="1036" type="qcurve" smooth="yes"/>
      <point x="1010.0" y="1209.0" name="inserted"/>
      <point x="850.0" y="1382.0"/>
      <point x="690" y="1382" type="qcurve" smooth="yes"/>
      <point x="440" y="1382" type="line"/>
      <point x="440.0" y="1382.0"/>
      <point x="437" y="0"/>
      <point x="437" y="0" type="qcurve"/>
      <point x="277" y="1" type="line"/>
      <point x="277" y="1"/>
      <point x="276.0" y="1372.0"/>
      <point x="276" y="1372" type="qcurve"/>
      <point x="150" y="1373" type="line"/>
      <point x="150" y="1495" type="line"/>
      <point x="690" y="1495" type="line" smooth="yes"/>
      <point x="926" y="1495"/>
      <point x="1169" y="1262"/>
      <point x="1169" y="1032" type="qcurve" smooth="yes"/>
      <point x="1169" y="803"/>
      <point x="930" y="561"/>
      <point x="690" y="561" type="qcurve" smooth="yes"/>
      <point x="431" y="557" type="line"/>
    </contour>
  </outline>
</glyph>
<glyph name="Q" format="1">
  <advance width="1454"/>
  <unicode hex="0051"/>
  <outline>
    <contour>
      <point x="838.0" y="-23.0" type="qcurve"/>
      <point x="838.0" y="-23.0"/>
      <point x="686.0" y="-27.0"/>
      <point x="686.0" y="-27.0" type="qcurve"/>
      <point x="422.0" y="-14.0"/>
      <point x="127.0" y="385.0"/>
      <point x="127.0" y="754.0" type="qcurve" smooth="yes"/>
      <point x="127.0" y="938.0"/>
      <point x="209.0" y="1225.0"/>
      <point x="287.0" y="1323.0" type="qcurve" smooth="yes" name="inserted"/>
      <point x="365.0" y="1421.0"/>
      <point x="584.0" y="1524.0"/>
      <point x="723.0" y="1524.0" type="qcurve" smooth="yes"/>
      <point x="862.0" y="1524.0"/>
      <point x="1083.0" y="1419.0"/>
      <point x="1161.0" y="1322.0" type="qcurve" smooth="yes" name="inserted"/>
      <point x="1239.0" y="1225.0"/>
      <point x="1323.0" y="944.0"/>
      <point x="1323.0" y="768.0" type="qcurve" smooth="yes"/>
      <point x="1323.0" y="414.0"/>
      <point x="1067.0" y="15.0"/>
    </contour>
    <contour>
      <point x="1159.0" y="748.0" type="qcurve" smooth="yes"/>
      <point x="1159.0" y="1063.0"/>
      <point x="928.0" y="1399.0"/>
      <point x="723.0" y="1399.0" type="qcurve" smooth="yes"/>
      <point x="518.0" y="1399.0"/>
      <point x="289.0" y="1063.0"/>
      <point x="289.0" y="748.0" type="qcurve" smooth="yes"/>
      <point x="289.0" y="432.0"/>
      <point x="518.0" y="96.0"/>
      <point x="723.0" y="96.0" type="qcurve" smooth="yes"/>
      <point x="928.0" y="96.0"/>
      <point x="1159.0" y="432.0"/>
    </contour>
  </outline>
</glyph>
<glyph name="V" format="1">
  <advance width="1264"/>
  <unicode hex="0056"/>
  <outline>
    <contour>
      <point x="1098" y="1495" type="qcurve" smooth="yes"/>
      <point x="1270" y="1495" type="line"/>
      <point x="1270" y="1371" type="line"/>
      <point x="1174" y="1372" type="line"/>
      <point x="737" y="0" type="line"/>
      <point x="524" y="0" type="line"/>
      <point x="88" y="1372" type="line"/>
      <point x="-6" y="1377" type="line"/>
      <point x="-6" y="1495" type="line"/>
      <point x="166" y="1495" type="line" smooth="yes"/>
      <point x="192.5" y="1495.0" name="inserted"/>
      <point x="227.5" y="1468.5"/>
      <point x="236" y="1442" type="qcurve" smooth="yes"/>
      <point x="627" y="166" type="line"/>
      <point x="635" y="166" type="line"/>
      <point x="1028" y="1442" type="line" smooth="yes"/>
      <point x="1036.0" y="1468.5" name="inserted"/>
      <point x="1071.0" y="1495.0"/>
    </contour>
  </outline>
</glyph>
<glyph name="Z" format="1">
  <advance width="1231"/>
  <unicode hex="005A"/>
  <outline>
    <contour>
      <point x="1114" y="342" type="line"/>
      <point x="1114" y="63" type="line" smooth="yes"/>
      <point x="1114.0" y="31.5" name="inserted"/>
      <point x="1082.5" y="0.0"/>
      <point x="1051" y="0" type="qcurve" smooth="yes"/>
      <point x="117" y="0" type="line"/>
      <point x="117" y="98" type="line"/>
      <point x="932" y="1382" type="line"/>
      <point x="281" y="1382" type="line"/>
      <point x="279" y="1153" type="line"/>
      <point x="158" y="1153" type="line"/>
      <point x="158" y="1432" type="line" smooth="yes"/>
      <point x="158.0" y="1463.5" name="inserted"/>
      <point x="189.5" y="1495.0"/>
      <point x="221" y="1495" type="qcurve" smooth="yes"/>
      <point x="1114" y="1495" type="line"/>
      <point x="1114" y="1397" type="line"/>
      <point x="299" y="113" type="line"/>
      <point x="991" y="113" type="line"/>
      <point x="995" y="342" type="line"/>
    </contour>
  </outline>
</glyph>
<glyph name="bracketleft" format="1">
  <advance width="713"/>
  <unicode hex="005B"/>
  <outline>
    <contour>
      <point x="655" y="1516" type="line"/>
      <point x="408" y="1516" type="line"/>
      <point x="408" y="-23" type="line"/>
      <point x="655" y="-23" type="line"/>
      <point x="655" y="-135" type="line"/>
      <point x="244" y="-135" type="line"/>
      <point x="244" y="1628" type="line"/>
      <point x="655" y="1628" type="line"/>
    </contour>
  </outline>
</glyph>
<glyph name="backslash" format="1">
  <advance width="618"/>
  <unicode hex="005C"/>
  <outline>
    <contour>
      <point x="618" y="-217" type="line"/>
      <point x="492" y="-217" type="line"/>
      <point x="0" y="1587" type="line"/>
      <point x="127" y="1587" type="line"/>
    </contour>
  </outline>
</glyph>
<glyph name="bracketright" format="1">
  <advance width="713"/>
  <unicode hex="005D"/>
  <outline>
    <contour>
      <point x="305" y="1516" type="line"/>
      <point x="57" y="1516" type="line"/>
      <point x="57" y="1628" type="line"/>
      <point x="469" y="1628" type="line"/>
      <point x="469" y="-135" type="line"/>
      <point x="57" y="-135" type="line"/>
      <point x="57" y="-23" type="line"/>
      <point x="305" y="-23" type="line"/>
    </contour>
  </outline>
</glyph>
<glyph name="grave" format="1">
  <advance width="643"/>
  <unicode hex="0060"/>
  <outline>
    <contour>
      <point x="494" y="1305" type="line"/>
      <point x="78" y="1520" type="line"/>
      <point x="158" y="1657" type="line"/>
      <point x="549" y="1399" type="line"/>
    </contour>
  </outline>
</glyph>
<glyph name="a" format="1">
  <advance width="1253"/>
  <unicode hex="0061"/>
  <outline>
    <contour>
      <point x="825" y="203" type="qcurve" smooth="yes"/>
      <point x="825" y="231" type="line"/>
      <point x="759.5" y="101.0" name="inserted"/>
      <point x="551.0" y="-29.0"/>
      <point x="408" y="-29" type="qcurve" smooth="yes"/>
      <point x="270" y="-29"/>
      <point x="106" y="137"/>
      <point x="106" y="285" type="qcurve" smooth="yes"/>
      <point x="106" y="383"/>
      <point x="182" y="532"/>
      <point x="268.0" y="582.5" type="qcurve" smooth="yes" name="inserted"/>
      <point x="354" y="633"/>
      <point x="629" y="684"/>
      <point x="825" y="684" type="qcurve"/>
      <point x="825" y="770" type="line" smooth="yes"/>
      <point x="825" y="858"/>
      <point x="795" y="977"/>
      <point x="762.0" y="1012.0" type="qcurve" smooth="yes" name="inserted"/>
      <point x="729" y="1047"/>
      <point x="627" y="1077"/>
      <point x="555" y="1077" type="qcurve" smooth="yes"/>
      <point x="483.5" y="1077.0" name="inserted"/>
      <point x="325.0" y="1028.0"/>
      <point x="238" y="979" type="qcurve"/>
      <point x="184" y="1102" type="line"/>
      <point x="289.5" y="1151.0" name="inserted"/>
      <point x="490.5" y="1200.0"/>
      <point x="586" y="1200" type="qcurve" smooth="yes"/>
      <point x="801" y="1200"/>
      <point x="987" y="993"/>
      <point x="987" y="782" type="qcurve" smooth="yes"/>
      <point x="987" y="221" type="line" smooth="yes"/>
      <point x="987.0" y="165.0" name="inserted"/>
      <point x="1030.0" y="109.0"/>
      <point x="1073" y="109" type="qcurve" smooth="yes"/>
      <point x="1087.5" y="109.0" name="inserted"/>
      <point x="1129.5" y="115.0"/>
      <point x="1157" y="121" type="qcurve"/>
      <point x="1176" y="-2" type="line"/>
      <point x="1137.0" y="-15.5" name="inserted"/>
      <point x="1059.0" y="-29.0"/>
      <point x="1020" y="-29" type="qcurve" smooth="yes"/>
      <point x="922.5" y="-29.0" name="inserted"/>
      <point x="825.0" y="87.0"/>
    </contour>
    <contour>
      <point x="825" y="580" type="line"/>
      <point x="542.5" y="580.0" name="inserted"/>
      <point x="260.0" y="438.5"/>
      <point x="260" y="297" type="qcurve" smooth="yes"/>
      <point x="260" y="203"/>
      <point x="365" y="98"/>
      <point x="459" y="98" type="qcurve" smooth="yes"/>
      <point x="532" y="98"/>
      <point x="662" y="160"/>
      <point x="712.0" y="218.0" type="qcurve" smooth="yes" name="inserted"/>
      <point x="762" y="276"/>
      <point x="821" y="446"/>
      <point x="825" y="555" type="qcurve" smooth="yes"/>
    </contour>
  </outline>
</glyph>
<glyph name="b" format="1">
  <advance width="1282"/>
  <unicode hex="0062"/>
  <outline>
    <contour>
      <point x="346" y="1513" type="qcurve" smooth="yes"/>
      <point x="346" y="1012" type="line"/>
      <point x="425.0" y="1106.0" name="inserted"/>
      <point x="613.5" y="1200.0"/>
      <point x="723" y="1200" type="qcurve" smooth="yes"/>
      <point x="840" y="1200"/>
      <point x="1006" y="1092"/>
      <point x="1058.0" y="1005.0" type="qcurve" smooth="yes" name="inserted"/>
      <point x="1110" y="918"/>
      <point x="1157" y="698"/>
      <point x="1157" y="586" type="qcurve" smooth="yes"/>
      <point x="1157" y="477"/>
      <point x="1098" y="260"/>
      <point x="1036.5" y="171.0" type="qcurve" smooth="yes" name="inserted"/>
      <point x="975" y="82"/>
      <point x="788" y="-29"/>
      <point x="664" y="-29" type="qcurve" smooth="yes"/>
      <point x="553" y="-29"/>
      <point x="375" y="27"/>
      <point x="312.5" y="87.0" type="qcurve" smooth="yes" name="inserted"/>
      <point x="250" y="147"/>
      <point x="184" y="342"/>
      <point x="184" y="481" type="qcurve" smooth="yes"/>
      <point x="184" y="1454" type="line"/>
      <point x="57" y="1452" type="line"/>
      <point x="57" y="1577" type="line"/>
      <point x="285" y="1577" type="line" smooth="yes"/>
      <point x="315.5" y="1577.0" name="inserted"/>
      <point x="346.0" y="1545.0"/>
    </contour>
    <contour>
      <point x="346" y="485" type="line" smooth="yes"/>
      <point x="346" y="383"/>
      <point x="391" y="236"/>
      <point x="431.0" y="188.5" type="qcurve" smooth="yes" name="inserted"/>
      <point x="471" y="141"/>
      <point x="580" y="96"/>
      <point x="645" y="96" type="qcurve" smooth="yes"/>
      <point x="817" y="96"/>
      <point x="995" y="358"/>
      <point x="995" y="586" type="qcurve" smooth="yes"/>
      <point x="995" y="688"/>
      <point x="961" y="866"/>
      <point x="922.0" y="932.5" type="qcurve" smooth="yes" name="inserted"/>
      <point x="883" y="999"/>
      <point x="760" y="1077"/>
      <point x="672" y="1077" type="qcurve" smooth="yes"/>
      <point x="582.0" y="1077.0" name="inserted"/>
      <point x="419.0" y="983.0"/>
      <point x="346" y="889" type="qcurve"/>
    </contour>
  </outline>
</glyph>
<glyph name="f" format="1">
  <advance width="733"/>
  <unicode hex="0066"/>
  <outline>
    <contour>
      <point x="442" y="2" type="qcurve"/>
      <point x="281" y="3" type="line"/>
      <point x="281.0" y="3.0"/>
      <point x="279.0" y="1059.0"/>
      <point x="279" y="1059" type="qcurve"/>
      <point x="84" y="1059" type="line"/>
      <point x="84" y="1171" type="line"/>
      <point x="279" y="1171" type="line"/>
      <point x="289" y="1386"/>
      <point x="477" y="1608"/>
      <point x="680" y="1608" type="qcurve" smooth="yes"/>
      <point x="744.5" y="1608.0" name="inserted"/>
      <point x="857.0" y="1581.0"/>
      <point x="905" y="1554" type="qcurve"/>
      <point x="862" y="1434" type="line"/>
      <point x="825.0" y="1458.5" name="inserted"/>
      <point x="732.0" y="1483.0"/>
      <point x="676" y="1483" type="qcurve" smooth="yes"/>
      <point x="566.5" y="1483.0" name="inserted"/>
      <point x="448.5" y="1327.0"/>
      <point x="440" y="1171" type="qcurve"/>
      <point x="640" y="1171" type="line"/>
      <point x="640" y="1059" type="line"/>
      <point x="440" y="1059" type="line"/>
      <point x="440.0" y="1059.0"/>
      <point x="442.0" y="2.0"/>
    </contour>
  </outline>
</glyph>
<glyph name="g" format="1">
  <advance width="1182"/>
  <unicode hex="0067"/>
  <outline>
    <contour>
      <point x="887.0" y="774.0" type="qcurve" smooth="yes"/>
      <point x="887.0" y="918.0"/>
      <point x="737.0" y="1083.0"/>
      <point x="606.0" y="1083.0" type="qcurve" smooth="yes"/>
      <point x="477.0" y="1083.0"/>
      <point x="334.0" y="930.0"/>
      <point x="334.0" y="782.0" type="qcurve" smooth="yes"/>
      <point x="334.0" y="639.0"/>
      <point x="487.0" y="471.0"/>
      <point x="616.0" y="471.0" type="qcurve" smooth="yes"/>
      <point x="745.0" y="471.0"/>
      <point x="887.0" y="631.0"/>
    </contour>
    <contour>
      <point x="877.0" y="-286.0" type="line"/>
      <point x="877.0" y="-390.0"/>
      <point x="721.0" y="-494.0"/>
      <point x="612.0" y="-494.0" type="qcurve" smooth="yes"/>
      <point x="373.0" y="-494.0"/>
      <point x="92.0" y="-348.0"/>
      <point x="92.0" y="-190.0" type="qcurve" smooth="yes"/>
      <point x="92.0" y="-80.0" name="inserted"/>
      <point x="92.0" y="66.0"/>
      <point x="92.0" y="170.0" type="qcurve" smooth="yes"/>
      <point x="92.0" y="220.0" name="inserted"/>
      <point x="148.0" y="325.0"/>
      <point x="203.0" y="379.0" type="qcurve" smooth="yes"/>
      <point x="301.0" y="473.0" type="line"/>
      <point x="242.0" y="530.0" name="inserted"/>
      <point x="182.0" y="685.0"/>
      <point x="182.0" y="784.0" type="qcurve" smooth="yes"/>
      <point x="182.0" y="983.0"/>
      <point x="399.0" y="1200.0"/>
      <point x="610.0" y="1200.0" type="qcurve" smooth="yes"/>
      <point x="654.0" y="1200.0" name="inserted"/>
      <point x="739.0" y="1186.0"/>
      <point x="780.0" y="1171.0" type="qcurve"/>
      <point x="1104.0" y="1171.0" type="line"/>
      <point x="1104.0" y="1059.0" type="line"/>
      <point x="944.0" y="1059.0" type="line"/>
      <point x="991.0" y="1003.0" name="inserted"/>
      <point x="1038.0" y="853.0"/>
      <point x="1038.0" y="760.0" type="qcurve" smooth="yes"/>
      <point x="1038.0" y="573.0"/>
      <point x="821.0" y="360.0"/>
      <point x="610.0" y="360.0" type="qcurve" smooth="yes"/>
      <point x="552.0" y="360.0" name="inserted"/>
      <point x="445.0" y="384.0"/>
      <point x="395.0" y="408.0" type="qcurve"/>
      <point x="287.0" y="297.0" type="line" smooth="yes"/>
      <point x="264.0" y="274.0" name="inserted"/>
      <point x="240.0" y="226.0"/>
      <point x="240.0" y="201.0" type="qcurve" smooth="yes"/>
      <point x="240.0" y="167.0" name="inserted"/>
      <point x="244.0" y="-127.0"/>
      <point x="244.0" y="-174.0" type="qcurve" smooth="yes"/>
      <point x="244.0" y="-272.0"/>
      <point x="444.0" y="-377.0"/>
      <point x="604.0" y="-377.0" type="qcurve" smooth="yes"/>
      <point x="681.0" y="-377.0"/>
      <point x="776.0" y="-346.0"/>
      <point x="790.0" y="-287.0" type="qcurve"/>
    </contour>
  </outline>
</glyph>
<glyph name="j" format="1">
  <advance width="625"/>
  <unicode hex="006A"/>
  <outline>
    <contour>
      <point x="332" y="1362" type="qcurve" smooth="yes"/>
      <point x="291" y="1362"/>
      <point x="227" y="1423"/>
      <point x="227" y="1464" type="qcurve" smooth="yes"/>
      <point x="227" y="1507"/>
      <point x="291" y="1571"/>
      <point x="332" y="1571" type="qcurve" smooth="yes"/>
      <point x="375" y="1571"/>
      <point x="436" y="1507"/>
      <point x="436" y="1464" type="qcurve" smooth="yes"/>
      <point x="436" y="1423"/>
      <point x="375" y="1362"/>
    </contour>
    <contour>
      <point x="410" y="1108" type="qcurve" smooth="yes"/>
      <point x="410" y="-80" type="line" smooth="yes"/>
      <point x="410" y="-201"/>
      <point x="365" y="-360"/>
      <point x="320.5" y="-407.5" type="qcurve" smooth="yes" name="inserted"/>
      <point x="276" y="-455"/>
      <point x="147" y="-494"/>
      <point x="63" y="-494" type="qcurve" smooth="yes"/>
      <point x="5.0" y="-494.0" name="inserted"/>
      <point x="-103.5" y="-472.5"/>
      <point x="-154" y="-451" type="qcurve"/>
      <point x="-115" y="-332" type="line"/>
      <point x="-76.0" y="-350.5" name="inserted"/>
      <point x="8.0" y="-369.0"/>
      <point x="53" y="-369" type="qcurve" smooth="yes"/>
      <point x="98" y="-369"/>
      <point x="172" y="-342"/>
      <point x="197.5" y="-308.0" type="qcurve" smooth="yes" name="inserted"/>
      <point x="223" y="-274"/>
      <point x="250" y="-162"/>
      <point x="250" y="-76" type="qcurve" smooth="yes"/>
      <point x="250" y="1049" type="line"/>
      <point x="127" y="1065" type="line"/>
      <point x="127" y="1171" type="line"/>
      <point x="348" y="1171" type="line" smooth="yes"/>
      <point x="379.0" y="1171.0" name="inserted"/>
      <point x="410.0" y="1139.5"/>
    </contour>
  </outline>
</glyph>
<glyph name="k" format="1">
  <advance width="1235"/>
  <unicode hex="006B"/>
  <outline>
    <contour>
      <point x="1006" y="154" type="line" smooth="yes"/>
      <point x="1026" y="121"/>
      <point x="1077" y="100"/>
      <point x="1104" y="98" type="qcurve"/>
      <point x="1122" y="98"/>
      <point x="1161" y="109"/>
      <point x="1178" y="113" type="qcurve"/>
      <point x="1196" y="-2" type="line"/>
      <point x="1165.5" y="-15.5" name="inserted"/>
      <point x="1096.0" y="-29.0"/>
      <point x="1057" y="-29" type="qcurve" smooth="yes"/>
      <point x="1002.5" y="-29.0" name="inserted"/>
      <point x="916.5" y="21.5"/>
      <point x="885" y="72" type="qcurve" smooth="yes"/>
      <point x="561" y="575" type="line"/>
      <point x="422" y="575" type="line"/>
      <point x="422.0" y="575.0"/>
      <point x="421.0" y="4.0"/>
      <point x="421" y="4" type="qcurve"/>
      <point x="260" y="0" type="line"/>
      <point x="260.0" y="0.0"/>
      <point x="260.0" y="1454.0"/>
      <point x="260" y="1454" type="qcurve"/>
      <point x="117" y="1470" type="line"/>
      <point x="117" y="1577" type="line"/>
      <point x="358" y="1577" type="line" smooth="yes"/>
      <point x="390.0" y="1577.0" name="inserted"/>
      <point x="422.0" y="1545.0"/>
      <point x="422" y="1513" type="qcurve" smooth="yes"/>
      <point x="422" y="686" type="line"/>
      <point x="584" y="686" type="line"/>
      <point x="893" y="1130" type="line" smooth="yes"/>
      <point x="907.5" y="1150.5" name="inserted"/>
      <point x="945.5" y="1171.0"/>
      <point x="969" y="1171" type="qcurve" smooth="yes"/>
      <point x="1135" y="1171" type="line"/>
      <point x="1135" y="1050" type="line"/>
      <point x="1006" y="1049" type="line"/>
      <point x="702" y="621" type="line"/>
    </contour>
  </outline>
</glyph>
<glyph name="m" format="1">
  <advance width="2107"/>
  <unicode hex="006D"/>
  <outline>
    <contour>
      <point x="985" y="59" type="qcurve" smooth="yes"/>
      <point x="985" y="834" type="line" smooth="yes"/>
      <point x="985" y="963"/>
      <point x="893" y="1075"/>
      <point x="780" y="1075" type="qcurve" smooth="yes"/>
      <point x="695.0" y="1075.0" name="inserted"/>
      <point x="525.0" y="999.5"/>
      <point x="440" y="924" type="qcurve"/>
      <point x="440" y="121" type="line"/>
      <point x="584" y="106" type="line"/>
      <point x="584" y="0" type="line"/>
      <point x="135" y="0" type="line"/>
      <point x="135" y="106" type="line"/>
      <point x="279" y="121" type="line"/>
      <point x="279" y="1049" type="line"/>
      <point x="135" y="1065" type="line"/>
      <point x="135" y="1171" type="line"/>
      <point x="352" y="1171" type="line" smooth="yes"/>
      <point x="384.0" y="1171.0" name="inserted"/>
      <point x="416.0" y="1140.5"/>
      <point x="416" y="1110" type="qcurve" smooth="yes"/>
      <point x="416" y="1030" type="line"/>
      <point x="513.0" y="1115.0" name="inserted"/>
      <point x="716.5" y="1200.0"/>
      <point x="823" y="1200" type="qcurve" smooth="yes"/>
      <point x="930.5" y="1200.0" name="inserted"/>
      <point x="1074.0" y="1121.0"/>
      <point x="1110" y="1042" type="qcurve"/>
      <point x="1207.5" y="1121.0" name="inserted"/>
      <point x="1397.0" y="1200.0"/>
      <point x="1489" y="1200" type="qcurve" smooth="yes"/>
      <point x="1677" y="1200"/>
      <point x="1837" y="1020"/>
      <point x="1837" y="834" type="qcurve" smooth="yes"/>
      <point x="1837" y="221" type="line" smooth="yes"/>
      <point x="1837.0" y="165.0" name="inserted"/>
      <point x="1881.0" y="109.0"/>
      <point x="1925" y="109" type="qcurve" smooth="yes"/>
      <point x="1950.5" y="109.0" name="inserted"/>
      <point x="1993.5" y="115.0"/>
      <point x="2011" y="121" type="qcurve"/>
      <point x="2030" y="-2" type="line"/>
      <point x="1991.0" y="-15.5" name="inserted"/>
      <point x="1912.0" y="-29.0"/>
      <point x="1872" y="-29" type="qcurve" smooth="yes"/>
      <point x="1773.5" y="-29.0" name="inserted"/>
      <point x="1675.0" y="87.0"/>
      <point x="1675" y="203" type="qcurve" smooth="yes"/>
      <point x="1675" y="834" type="line" smooth="yes"/>
      <point x="1675" y="963"/>
      <point x="1583" y="1075"/>
      <point x="1470" y="1075" type="qcurve" smooth="yes"/>
      <point x="1387.5" y="1075.0" name="inserted"/>
      <point x="1222.0" y="1007.5"/>
      <point x="1139" y="940" type="qcurve"/>
      <point x="1143" y="907"/>
      <point x="1147" y="854"/>
      <point x="1147" y="834" type="qcurve" smooth="yes"/>
      <point x="1147" y="121" type="line"/>
      <point x="1288" y="106" type="line"/>
      <point x="1288" y="0" type="line"/>
      <point x="1049" y="0" type="line" smooth="yes"/>
      <point x="1017.0" y="0.0" name="inserted"/>
      <point x="985.0" y="29.5"/>
    </contour>
  </outline>
</glyph>
<glyph name="n" format="1">
  <advance width="1460"/>
  <unicode hex="006E"/>
  <outline>
    <contour>
      <point x="1024" y="203" type="qcurve" smooth="yes"/>
      <point x="1024" y="834" type="line" smooth="yes"/>
      <point x="1024" y="963"/>
      <point x="932" y="1075"/>
      <point x="819" y="1075" type="qcurve" smooth="yes"/>
      <point x="723.0" y="1075.0" name="inserted"/>
      <point x="533.5" y="999.5"/>
      <point x="440" y="924" type="qcurve"/>
      <point x="440.0" y="924.0"/>
      <point x="440" y="-1"/>
      <point x="440" y="-1" type="qcurve"/>
      <point x="279" y="0" type="line"/>
      <point x="279.0" y="0.0"/>
      <point x="279.0" y="1049.0"/>
      <point x="279" y="1049" type="qcurve"/>
      <point x="135" y="1047" type="line"/>
      <point x="135" y="1171" type="line"/>
      <point x="352" y="1171" type="line" smooth="yes"/>
      <point x="384.0" y="1171.0" name="inserted"/>
      <point x="416.0" y="1140.5"/>
      <point x="416" y="1110" type="qcurve" smooth="yes"/>
      <point x="416" y="1030" type="line"/>
      <point x="524.5" y="1115.0" name="inserted"/>
      <point x="741.5" y="1200.0"/>
      <point x="850" y="1200" type="qcurve" smooth="yes"/>
      <point x="1028" y="1200"/>
      <point x="1186" y="1020"/>
      <point x="1186" y="834" type="qcurve" smooth="yes"/>
      <point x="1186" y="221" type="line" smooth="yes"/>
      <point x="1186.0" y="165.0" name="inserted"/>
      <point x="1230.0" y="109.0"/>
      <point x="1274" y="109" type="qcurve" smooth="yes"/>
      <point x="1292.5" y="109.0" name="inserted"/>
      <point x="1335.5" y="115.0"/>
      <point x="1360" y="121" type="qcurve"/>
      <point x="1378" y="-2" type="line"/>
      <point x="1339.0" y="-15.5" name="inserted"/>
      <point x="1260.5" y="-29.0"/>
      <point x="1221" y="-29" type="qcurve" smooth="yes"/>
      <point x="1122.5" y="-29.0" name="inserted"/>
      <point x="1024.0" y="87.0"/>
    </contour>
  </outline>
</glyph>
<glyph name="o" format="1">
  <advance width="1272"/>
  <unicode hex="006F"/>
  <outline>
    <contour>
      <point x="127" y="596" type="qcurve" smooth="yes"/>
      <point x="127" y="887"/>
      <point x="385" y="1200"/>
      <point x="625" y="1200" type="qcurve" smooth="yes"/>
      <point x="743" y="1200"/>
      <point x="936" y="1112"/>
      <point x="1004.5" y="1030.0" type="qcurve" smooth="yes" name="inserted"/>
      <point x="1073" y="948"/>
      <point x="1147" y="717"/>
      <point x="1147" y="573" type="qcurve" smooth="yes"/>
      <point x="1147" y="285"/>
      <point x="887" y="-29"/>
      <point x="645" y="-29" type="qcurve" smooth="yes"/>
      <point x="526" y="-29"/>
      <point x="334" y="59"/>
      <point x="266.5" y="140.0" type="qcurve" smooth="yes" name="inserted"/>
      <point x="199" y="221"/>
      <point x="127" y="453"/>
    </contour>
    <contour>
      <point x="985" y="575" type="qcurve" smooth="yes"/>
      <point x="985" y="809"/>
      <point x="795" y="1075"/>
      <point x="629" y="1075" type="qcurve" smooth="yes"/>
      <point x="463" y="1075"/>
      <point x="287" y="825"/>
      <point x="287" y="596" type="qcurve" smooth="yes"/>
      <point x="287" y="481"/>
      <point x="338" y="297"/>
      <point x="384.0" y="231.5" type="qcurve" smooth="yes" name="inserted"/>
      <point x="430" y="166"/>
      <point x="563" y="96"/>
      <point x="643" y="96" type="qcurve" smooth="yes"/>
      <point x="805" y="96"/>
      <point x="985" y="346"/>
    </contour>
  </outline>
</glyph>
<glyph name="p" format="1">
  <advance width="1331"/>
  <unicode hex="0070"/>
  <outline>
    <contour>
      <point x="694" y="96" type="qcurve" smooth="yes"/>
      <point x="859.0" y="96.0" name="inserted"/>
      <point x="1024.0" y="341.0"/>
      <point x="1024" y="586" type="qcurve" smooth="yes"/>
      <point x="1024" y="686"/>
      <point x="993" y="864"/>
      <point x="956.5" y="931.5" type="qcurve" smooth="yes" name="inserted"/>
      <point x="920" y="999"/>
      <point x="801" y="1077"/>
      <point x="713" y="1077" type="qcurve" smooth="yes"/>
      <point x="633.0" y="1077.0" name="inserted"/>
      <point x="482.5" y="983.0"/>
      <point x="412" y="889" type="qcurve"/>
      <point x="412" y="166" type="line"/>
      <point x="474.5" y="131.0" name="inserted"/>
      <point x="615.5" y="96.0"/>
    </contour>
    <contour>
      <point x="106" y="1171" type="line"/>
      <point x="324" y="1171" type="line" smooth="yes"/>
      <point x="355.5" y="1171.0" name="inserted"/>
      <point x="387.0" y="1140.5"/>
      <point x="387" y="1110" type="qcurve" smooth="yes"/>
      <point x="387" y="981" type="line"/>
      <point x="470.0" y="1090.5" name="inserted"/>
      <point x="661.5" y="1200.0"/>
      <point x="770" y="1200" type="qcurve" smooth="yes"/>
      <point x="881" y="1200"/>
      <point x="1038" y="1094"/>
      <point x="1088.5" y="1007.0" type="qcurve" smooth="yes" name="inserted"/>
      <point x="1139" y="920"/>
      <point x="1186" y="698"/>
      <point x="1186" y="586" type="qcurve" smooth="yes"/>
      <point x="1186" y="465"/>
      <point x="1141" y="242"/>
      <point x="1086.5" y="157.0" type="qcurve" smooth="yes" name="inserted"/>
      <point x="1032" y="72"/>
      <point x="854" y="-29"/>
      <point x="721" y="-29" type="qcurve" smooth="yes"/>
      <point x="649" y="-29"/>
      <point x="489" y="6"/>
      <point x="412" y="45" type="qcurve"/>
      <point x="412" y="-465" type="line"/>
      <point x="250" y="-477" type="line"/>
      <point x="250" y="1049" type="line"/>
      <point x="106" y="1054" type="line"/>
    </contour>
  </outline>
</glyph>
<glyph name="q" format="1">
  <advance width="1339"/>
  <unicode hex="0071"/>
  <outline>
    <contour>
      <point x="551" y="-29" type="qcurve" smooth="yes"/>
      <point x="436" y="-29"/>
      <point x="274" y="80"/>
      <point x="223.0" y="168.0" type="qcurve" smooth="yes" name="inserted"/>
      <point x="172" y="256"/>
      <point x="127" y="475"/>
      <point x="127" y="586" type="qcurve" smooth="yes"/>
      <point x="127" y="690"/>
      <point x="182" y="909"/>
      <point x="242.5" y="998.0" type="qcurve" smooth="yes" name="inserted"/>
      <point x="303" y="1087"/>
      <point x="494" y="1200"/>
      <point x="629" y="1200" type="qcurve" smooth="yes"/>
      <point x="756.0" y="1200.0" name="inserted"/>
      <point x="934.0" y="1086.5"/>
      <point x="985" y="973" type="qcurve"/>
      <point x="985" y="1110" type="line" smooth="yes"/>
      <point x="985.0" y="1140.5" name="inserted"/>
      <point x="1017.0" y="1171.0"/>
      <point x="1049" y="1171" type="qcurve" smooth="yes"/>
      <point x="1223" y="1171" type="line"/>
      <point x="1219" y="1050" type="line"/>
      <point x="1079" y="1049" type="line"/>
      <point x="1079" y="-477" type="line"/>
      <point x="918" y="-465" type="line"/>
      <point x="918" y="158" type="line"/>
      <point x="843.0" y="64.5" name="inserted"/>
      <point x="659.5" y="-29.0"/>
    </contour>
    <contour>
      <point x="918" y="686" type="line" smooth="yes"/>
      <point x="918" y="893"/>
      <point x="756" y="1075"/>
      <point x="627" y="1075" type="qcurve" smooth="yes"/>
      <point x="461" y="1075"/>
      <point x="287" y="813"/>
      <point x="287" y="586" type="qcurve" smooth="yes"/>
      <point x="287" y="489"/>
      <point x="317" y="313"/>
      <point x="354.0" y="244.5" type="qcurve" smooth="yes" name="inserted"/>
      <point x="391" y="176"/>
      <point x="514" y="94"/>
      <point x="606" y="94" type="qcurve" smooth="yes"/>
      <point x="693.0" y="94.0" name="inserted"/>
      <point x="849.0" y="187.5"/>
      <point x="918" y="281" type="qcurve"/>
    </contour>
  </outline>
</glyph>
<glyph name="u" format="1">
  <advance width="1436"/>
  <unicode hex="0075"/>
  <outline>
    <contour>
      <point x="1155" y="1108" type="qcurve" smooth="yes"/>
      <point x="1155" y="221" type="line" smooth="yes"/>
      <point x="1155" y="165" name="inserted"/>
      <point x="1200" y="109"/>
      <point x="1245" y="109" type="qcurve" smooth="yes"/>
      <point x="1270" y="109" name="inserted"/>
      <point x="1312" y="115"/>
      <point x="1329" y="121" type="qcurve"/>
      <point x="1350" y="-2" type="line"/>
      <point x="1310" y="-16" name="inserted"/>
      <point x="1231" y="-29"/>
      <point x="1192" y="-29" type="qcurve" smooth="yes"/>
      <point x="1110" y="-29" name="inserted"/>
      <point x="1014" y="50"/>
      <point x="999" y="129" type="qcurve"/>
      <point x="893" y="50" name="inserted"/>
      <point x="689" y="-29"/>
      <point x="592" y="-29" type="qcurve" smooth="yes"/>
      <point x="399" y="-29"/>
      <point x="240" y="147"/>
      <point x="240" y="338" type="qcurve" smooth="yes"/>
      <point x="240" y="1049" type="line"/>
      <point x="96" y="1065" type="line"/>
      <point x="96" y="1171" type="line"/>
      <point x="332" y="1171" type="line" smooth="yes"/>
      <point x="367" y="1171" name="inserted"/>
      <point x="401" y="1140"/>
      <point x="401" y="1108" type="qcurve" smooth="yes"/>
      <point x="401" y="338" type="line" smooth="yes"/>
      <point x="401" y="209"/>
      <point x="494" y="94"/>
      <point x="606" y="94" type="qcurve" smooth="yes"/>
      <point x="704" y="94" name="inserted"/>
      <point x="898" y="174"/>
      <point x="995" y="254" type="qcurve"/>
      <point x="995.0" y="254.0"/>
      <point x="993.0" y="1172.0"/>
      <point x="993" y="1172" type="qcurve"/>
      <point x="1094" y="1171" type="line" smooth="yes"/>
      <point x="1125" y="1171" name="inserted"/>
      <point x="1155" y="1140"/>
    </contour>
  </outline>
</glyph>
<glyph name="x" format="1">
  <advance width="1116"/>
  <unicode hex="0078"/>
  <outline>
    <contour>
      <point x="930" y="1171" type="qcurve" smooth="yes"/>
      <point x="1065" y="1171" type="line"/>
      <point x="1065" y="1050" type="line"/>
      <point x="977" y="1051" type="line"/>
      <point x="655" y="582" type="line"/>
      <point x="1085" y="0" type="line"/>
      <point x="911" y="0" type="line"/>
      <point x="563" y="471" type="line"/>
      <point x="268" y="41" type="line" smooth="yes"/>
      <point x="254.0" y="20.5" name="inserted"/>
      <point x="215" y="-1"/>
      <point x="190" y="0" type="qcurve" smooth="yes"/>
      <point x="58" y="3" type="line"/>
      <point x="58.0" y="3.0"/>
      <point x="469.0" y="600.0"/>
      <point x="469" y="600" type="qcurve"/>
      <point x="49" y="1171" type="line"/>
      <point x="223" y="1171" type="line"/>
      <point x="565" y="707" type="line"/>
      <point x="850" y="1128" type="line" smooth="yes"/>
      <point x="863.5" y="1149.5" name="inserted"/>
      <point x="903.5" y="1171.0"/>
    </contour>
  </outline>
</glyph>
<glyph name="braceleft" format="1">
  <advance width="715"/>
  <unicode hex="007B"/>
  <outline>
    <contour>
      <point x="399" y="1202" type="qcurve"/>
      <point x="416" y="893" type="line"/>
      <point x="416" y="831"/>
      <point x="354" y="760"/>
      <point x="305" y="756" type="qcurve"/>
      <point x="305" y="739" type="line"/>
      <point x="354" y="735"/>
      <point x="416" y="664"/>
      <point x="416" y="602" type="qcurve"/>
      <point x="399" y="293" type="line"/>
      <point x="399.0" y="133.0" name="inserted"/>
      <point x="527.0" y="-27.0"/>
      <point x="655" y="-27" type="qcurve"/>
      <point x="655" y="-139" type="line"/>
      <point x="443.0" y="-139.0" name="inserted"/>
      <point x="231.0" y="68.5"/>
      <point x="231" y="276" type="qcurve"/>
      <point x="248" y="588" type="line"/>
      <point x="248" y="643"/>
      <point x="156" y="694"/>
      <point x="96" y="694" type="qcurve"/>
      <point x="96" y="801" type="line"/>
      <point x="156" y="801"/>
      <point x="248" y="852"/>
      <point x="248" y="907" type="qcurve"/>
      <point x="247.0" y="923.5" name="inserted"/>
      <point x="245.0" y="962.5"/>
      <point x="244" y="985" type="qcurve" smooth="yes"/>
      <point x="242" y="1024"/>
      <point x="236" y="1141"/>
      <point x="231" y="1219" type="qcurve"/>
      <point x="231.0" y="1426.5" name="inserted"/>
      <point x="443.0" y="1634.0"/>
      <point x="655" y="1634" type="qcurve"/>
      <point x="655" y="1522" type="line"/>
      <point x="527.0" y="1522.0" name="inserted"/>
      <point x="399.0" y="1362.0"/>
    </contour>
  </outline>
</glyph>
<glyph name="asciitilde" format="1">
  <advance width="1196"/>
  <unicode hex="007E"/>
  <outline>
    <contour>
      <point x="195" y="813" type="line"/>
      <point x="229.5" y="788.5" name="inserted"/>
      <point x="309.0" y="764.0"/>
      <point x="354" y="764" type="qcurve" smooth="yes"/>
      <point x="395" y="764"/>
      <point x="528" y="791"/>
      <point x="600.0" y="808.0" type="qcurve" smooth="yes" name="inserted"/>
      <point x="672" y="825"/>
      <point x="803" y="852"/>
      <point x="840" y="852" type="qcurve" smooth="yes"/>
      <point x="883.0" y="852.0" name="inserted"/>
      <point x="963.5" y="832.5"/>
      <point x="1001" y="813" type="qcurve"/>
      <point x="1001" y="682" type="line"/>
      <point x="962.5" y="703.5" name="inserted"/>
      <point x="881.0" y="725.0"/>
      <point x="838" y="725" type="qcurve" smooth="yes"/>
      <point x="803" y="725"/>
      <point x="670" y="698"/>
      <point x="597.0" y="681.0" type="qcurve" smooth="yes" name="inserted"/>
      <point x="524" y="664"/>
      <point x="391" y="637"/>
      <point x="354" y="637" type="qcurve" smooth="yes"/>
      <point x="312.0" y="637.0" name="inserted"/>
      <point x="232.5" y="659.5"/>
      <point x="195" y="682" type="qcurve"/>
    </contour>
  </outline>
</glyph>
<glyph name="sterling" format="1">
  <advance width="1255"/>
  <unicode hex="00A3"/>
  <outline>
    <contour>
      <point x="842" y="653" type="line"/>
      <point x="432" y="653" type="line"/>
      <point x="432" y="336" type="line" smooth="yes"/>
      <point x="432" y="252"/>
      <point x="391" y="160"/>
      <point x="344" y="113" type="qcurve"/>
      <point x="1157" y="113" type="line"/>
      <point x="1157" y="0" type="line"/>
      <point x="164" y="0" type="line"/>
      <point x="164" y="94" type="line"/>
      <point x="216.0" y="137.0" name="inserted"/>
      <point x="268.0" y="247.5"/>
      <point x="268" y="315" type="qcurve" smooth="yes"/>
      <point x="268" y="653" type="line"/>
      <point x="80" y="653" type="line"/>
      <point x="80" y="748" type="line"/>
      <point x="268" y="748" type="line"/>
      <point x="268" y="1063" type="line" smooth="yes"/>
      <point x="268" y="1288"/>
      <point x="469" y="1524"/>
      <point x="700" y="1524" type="qcurve" smooth="yes"/>
      <point x="880.5" y="1524.0" name="inserted"/>
      <point x="1102.0" y="1338.5"/>
      <point x="1143" y="1153" type="qcurve"/>
      <point x="997" y="1118" type="line"/>
      <point x="961.5" y="1258.5" name="inserted"/>
      <point x="812.0" y="1399.0"/>
      <point x="698" y="1399" type="qcurve" smooth="yes"/>
      <point x="551" y="1399"/>
      <point x="432" y="1229"/>
      <point x="432" y="1063" type="qcurve" smooth="yes"/>
      <point x="432" y="748" type="line"/>
      <point x="842" y="748" type="line"/>
    </contour>
  </outline>
</glyph>
<glyph name="copyright" format="1">
  <advance width="1475"/>
  <unicode hex="00A9"/>
  <outline>
    <contour>
      <point x="291" y="1585" type="qcurve" smooth="yes"/>
      <point x="368.5" y="1669.0" name="inserted"/>
      <point x="591.5" y="1753.0"/>
      <point x="737" y="1753" type="qcurve" smooth="yes"/>
      <point x="881" y="1753"/>
      <point x="1106" y="1665"/>
      <point x="1184.0" y="1585.0" type="qcurve" smooth="yes" name="inserted"/>
      <point x="1262" y="1505"/>
      <point x="1341" y="1286"/>
      <point x="1341" y="1157" type="qcurve" smooth="yes"/>
      <point x="1341" y="1028"/>
      <point x="1251" y="805"/>
      <point x="1171.5" y="722.0" type="qcurve" smooth="yes" name="inserted"/>
      <point x="1092" y="639"/>
      <point x="870" y="543"/>
      <point x="737" y="543" type="qcurve" smooth="yes"/>
      <point x="602" y="543"/>
      <point x="381" y="637"/>
      <point x="301.0" y="720.0" type="qcurve" smooth="yes" name="inserted"/>
      <point x="221" y="803"/>
      <point x="133" y="1028"/>
      <point x="133" y="1157" type="qcurve" smooth="yes"/>
      <point x="133.0" y="1287.0" name="inserted"/>
      <point x="212.0" y="1501.0"/>
    </contour>
    <contour>
      <point x="358" y="766" type="qcurve" smooth="yes"/>
      <point x="432.0" y="688.0" name="inserted"/>
      <point x="621.5" y="610.0"/>
      <point x="737" y="610" type="qcurve" smooth="yes"/>
      <point x="854" y="610"/>
      <point x="1047" y="694"/>
      <point x="1116.5" y="768.0" type="qcurve" smooth="yes" name="inserted"/>
      <point x="1186" y="842"/>
      <point x="1264" y="1040"/>
      <point x="1264" y="1155" type="qcurve" smooth="yes"/>
      <point x="1264" y="1272"/>
      <point x="1192" y="1466"/>
      <point x="1124.5" y="1537.0" type="qcurve" smooth="yes" name="inserted"/>
      <point x="1057" y="1608"/>
      <point x="860" y="1686"/>
      <point x="737" y="1686" type="qcurve" smooth="yes"/>
      <point x="612" y="1686"/>
      <point x="418" y="1608"/>
      <point x="350.5" y="1537.0" type="qcurve" smooth="yes" name="inserted"/>
      <point x="283" y="1466"/>
      <point x="211" y="1272"/>
      <point x="211" y="1155" type="qcurve" smooth="yes"/>
      <point x="211.0" y="1038.5" name="inserted"/>
      <point x="284.5" y="844.0"/>
    </contour>
    <contour>
      <point x="743" y="1495" type="qcurve" smooth="yes"/>
      <point x="684" y="1495"/>
      <point x="602" y="1440"/>
      <point x="577.5" y="1395.0" type="qcurve" smooth="yes" name="inserted"/>
      <point x="553" y="1350"/>
      <point x="530" y="1229"/>
      <point x="530" y="1165" type="qcurve" smooth="yes"/>
      <point x="530" y="1104"/>
      <point x="549" y="979"/>
      <point x="572.5" y="926.5" type="qcurve" smooth="yes" name="inserted"/>
      <point x="596" y="874"/>
      <point x="676" y="809"/>
      <point x="739" y="809" type="qcurve" smooth="yes"/>
      <point x="817.0" y="809.0" name="inserted"/>
      <point x="911.5" y="917.5"/>
      <point x="928" y="1026" type="qcurve"/>
      <point x="1018" y="1006" type="line"/>
      <point x="989.5" y="869.5" name="inserted"/>
      <point x="850.0" y="733.0"/>
      <point x="739" y="733" type="qcurve" smooth="yes"/>
      <point x="645" y="733"/>
      <point x="524" y="815"/>
      <point x="489.5" y="877.5" type="qcurve" smooth="yes" name="inserted"/>
      <point x="455" y="940"/>
      <point x="428" y="1087"/>
      <point x="428" y="1155" type="qcurve" smooth="yes"/>
      <point x="428" y="1227"/>
      <point x="455" y="1374"/>
      <point x="491.5" y="1434.5" type="qcurve" smooth="yes" name="inserted"/>
      <point x="528" y="1495"/>
      <point x="653" y="1571"/>
      <point x="752" y="1571" type="qcurve" smooth="yes"/>
      <point x="807" y="1571"/>
      <point x="930" y="1542"/>
      <point x="991" y="1507" type="qcurve"/>
      <point x="958" y="1434" type="line"/>
      <point x="894.5" y="1464.5" name="inserted"/>
      <point x="787.0" y="1495.0"/>
    </contour>
  </outline>
</glyph>
<glyph name="acute" format="1">
  <advance width="643"/>
  <unicode hex="00B4"/>
  <outline>
    <contour>
      <point x="573" y="1520" type="line"/>
      <point x="160" y="1305" type="line"/>
      <point x="102" y="1399" type="line"/>
      <point x="496" y="1657" type="line"/>
    </contour>
  </outline>
</glyph>
<glyph name="paragraph" format="1">
  <advance width="1159"/>
  <unicode hex="00B6"/>
  <outline>
    <contour>
      <point x="717" y="561" type="line"/>
      <point x="612" y="561" type="line" smooth="yes"/>
      <point x="506" y="561"/>
      <point x="334" y="631"/>
      <point x="272.5" y="692.5" type="qcurve" smooth="yes" name="inserted"/>
      <point x="211" y="754"/>
      <point x="145" y="926"/>
      <point x="145" y="1028" type="qcurve" smooth="yes"/>
      <point x="145" y="1133"/>
      <point x="213" y="1305"/>
      <point x="274.5" y="1366.0" type="qcurve" smooth="yes" name="inserted"/>
      <point x="336" y="1427"/>
      <point x="508" y="1495"/>
      <point x="612" y="1495" type="qcurve" smooth="yes"/>
      <point x="819" y="1495" type="line" smooth="yes"/>
      <point x="851.0" y="1495.0" name="inserted"/>
      <point x="883.0" y="1463.5"/>
      <point x="883" y="1432" type="qcurve" smooth="yes"/>
      <point x="883" y="121" type="line"/>
      <point x="1010" y="106" type="line"/>
      <point x="1010" y="0" type="line"/>
      <point x="500" y="0" type="line"/>
      <point x="500" y="104" type="line"/>
      <point x="717" y="121" type="line"/>
    </contour>
  </outline>
</glyph>
<glyph name="Oslash" format="1">
  <advance width="1454"/>
  <unicode hex="00D8"/>
  <outline>
    <contour>
      <point x="127" y="748" type="qcurve" smooth="yes"/>
      <point x="127" y="934"/>
      <point x="209" y="1223"/>
      <point x="285.5" y="1322.0" type="qcurve" smooth="yes" name="inserted"/>
      <point x="362" y="1421"/>
      <point x="584" y="1524"/>
      <point x="723" y="1524" type="qcurve" smooth="yes"/>
      <point x="755.5" y="1524.0" name="inserted"/>
      <point x="829.0" y="1515.5"/>
      <point x="870" y="1507" type="qcurve"/>
      <point x="909" y="1649" type="line"/>
      <point x="1036" y="1649" type="line"/>
      <point x="987" y="1466" type="line"/>
      <point x="1147" y="1386"/>
      <point x="1323" y="1022"/>
      <point x="1323" y="748" type="qcurve" smooth="yes"/>
      <point x="1323" y="373"/>
      <point x="1006" y="-29"/>
      <point x="723" y="-29" type="qcurve" smooth="yes"/>
      <point x="689.0" y="-29.0" name="inserted"/>
      <point x="619.5" y="-21.5"/>
      <point x="584" y="-14" type="qcurve"/>
      <point x="545" y="-156" type="line"/>
      <point x="418" y="-156" type="line"/>
      <point x="467" y="25" type="line"/>
      <point x="301" y="102"/>
      <point x="127" y="469"/>
    </contour>
    <contour>
      <point x="723" y="1399" type="qcurve" smooth="yes"/>
      <point x="518" y="1399"/>
      <point x="289" y="1063"/>
      <point x="289" y="748" type="qcurve" smooth="yes"/>
      <point x="289.0" y="531.5" name="inserted"/>
      <point x="396.5" y="238.5"/>
      <point x="504" y="162" type="qcurve"/>
      <point x="836" y="1382" type="line"/>
      <point x="806.0" y="1390.5" name="inserted"/>
      <point x="749.5" y="1399.0"/>
    </contour>
    <contour>
      <point x="1159" y="748" type="qcurve" smooth="yes"/>
      <point x="1159.0" y="963.0" name="inserted"/>
      <point x="1053.5" y="1252.5"/>
      <point x="948" y="1327" type="qcurve"/>
      <point x="616" y="109" type="line"/>
      <point x="641.0" y="102.5" name="inserted"/>
      <point x="694.5" y="96.0"/>
      <point x="723" y="96" type="qcurve" smooth="yes"/>
      <point x="928" y="96"/>
      <point x="1159" y="432"/>
    </contour>
  </outline>
</glyph>
<glyph name="Thorn" format="1">
  <advance width="1284"/>
  <unicode hex="00DE"/>
  <outline>
    <contour>
      <point x="442" y="1176" type="line"/>
      <point x="672" y="1176" type="line" smooth="yes"/>
      <point x="907" y="1176"/>
      <point x="1153" y="954"/>
      <point x="1153" y="750" type="qcurve" smooth="yes"/>
      <point x="1153" y="545"/>
      <point x="911" y="330"/>
      <point x="672" y="330" type="qcurve" smooth="yes"/>
      <point x="571" y="330" type="line"/>
      <point x="571" y="440" type="line"/>
      <point x="672" y="440" type="line" smooth="yes"/>
      <point x="831.5" y="440.0" name="inserted"/>
      <point x="991.0" y="595.0"/>
      <point x="991" y="750" type="qcurve" smooth="yes"/>
      <point x="991.0" y="907.5" name="inserted"/>
      <point x="831.5" y="1065.0"/>
      <point x="672" y="1065" type="qcurve" smooth="yes"/>
      <point x="442" y="1065" type="line"/>
      <point x="442" y="121" type="line"/>
      <point x="571" y="104" type="line"/>
      <point x="571" y="0" type="line"/>
      <point x="150" y="0" type="line"/>
      <point x="150" y="106" type="line"/>
      <point x="279" y="121" type="line"/>
      <point x="279" y="1372" type="line"/>
      <point x="152" y="1389" type="line"/>
      <point x="152" y="1495" type="line"/>
      <point x="569" y="1495" type="line"/>
      <point x="569" y="1389" type="line"/>
      <point x="442" y="1372" type="line"/>
    </contour>
  </outline>
</glyph>
<glyph name="germandbls" format="1">
  <advance width="1368"/>
  <unicode hex="00DF"/>
  <outline>
    <contour>
      <point x="246" y="991" type="line" smooth="yes"/>
      <point x="246" y="1257"/>
      <point x="494" y="1526"/>
      <point x="709" y="1526" type="qcurve" smooth="yes"/>
      <point x="926" y="1526"/>
      <point x="1169" y="1309"/>
      <point x="1169" y="1122" type="qcurve" smooth="yes"/>
      <point x="1169" y="997"/>
      <point x="1044" y="811"/>
      <point x="920" y="778" type="qcurve"/>
      <point x="1090" y="756"/>
      <point x="1290" y="561"/>
      <point x="1290" y="373" type="qcurve" smooth="yes"/>
      <point x="1290" y="186"/>
      <point x="1083" y="-29"/>
      <point x="881" y="-29" type="qcurve" smooth="yes"/>
      <point x="801" y="-29"/>
      <point x="666" y="29"/>
      <point x="618.5" y="81.0" type="qcurve" smooth="yes" name="inserted"/>
      <point x="571" y="133"/>
      <point x="518" y="279"/>
      <point x="518" y="367" type="qcurve"/>
      <point x="651" y="367" type="line"/>
      <point x="651" y="246"/>
      <point x="772" y="96"/>
      <point x="887" y="96" type="qcurve" smooth="yes"/>
      <point x="999" y="96"/>
      <point x="1128" y="248"/>
      <point x="1128" y="389" type="qcurve" smooth="yes"/>
      <point x="1128" y="532"/>
      <point x="956" y="705"/>
      <point x="782" y="705" type="qcurve" smooth="yes"/>
      <point x="588" y="705" type="line"/>
      <point x="588" y="817" type="line"/>
      <point x="721" y="817" type="line" smooth="yes"/>
      <point x="858" y="817"/>
      <point x="1012" y="969"/>
      <point x="1012" y="1110" type="qcurve" smooth="yes"/>
      <point x="1012" y="1251"/>
      <point x="854" y="1401"/>
      <point x="713" y="1401" type="qcurve" smooth="yes"/>
      <point x="561.5" y="1401.0" name="inserted"/>
      <point x="410.0" y="1197.0"/>
      <point x="410" y="993" type="qcurve" smooth="yes"/>
      <point x="410" y="63" type="line" smooth="yes"/>
      <point x="410.0" y="31.5" name="inserted"/>
      <point x="375.0" y="0.0"/>
      <point x="340" y="0" type="qcurve" smooth="yes"/>
      <point x="117" y="0" type="line"/>
      <point x="117" y="106" type="line"/>
      <point x="246" y="121" type="line"/>
    </contour>
  </outline>
</glyph>
<glyph name="eth" format="1">
  <advance width="1292"/>
  <unicode hex="00F0"/>
  <outline>
    <contour>
      <point x="1147" y="586" type="qcurve" smooth="yes"/>
      <point x="1147" y="287"/>
      <point x="887" y="-29"/>
      <point x="645" y="-29" type="qcurve" smooth="yes"/>
      <point x="526" y="-29"/>
      <point x="334" y="59"/>
      <point x="266.5" y="140.0" type="qcurve" smooth="yes" name="inserted"/>
      <point x="199" y="221"/>
      <point x="127" y="449"/>
      <point x="127" y="590" type="qcurve" smooth="yes"/>
      <point x="127" y="872"/>
      <point x="387" y="1169"/>
      <point x="635" y="1169" type="qcurve" smooth="yes"/>
      <point x="718.0" y="1169.0" name="inserted"/>
      <point x="860.5" y="1110.0"/>
      <point x="920" y="1051" type="qcurve"/>
      <point x="889.0" y="1147.0" name="inserted"/>
      <point x="803.0" y="1325.0"/>
      <point x="748" y="1407" type="qcurve"/>
      <point x="528" y="1319" type="line"/>
      <point x="528" y="1434" type="line"/>
      <point x="682" y="1495" type="line"/>
      <point x="657.5" y="1525.5" name="inserted"/>
      <point x="603.0" y="1586.0"/>
      <point x="573" y="1616" type="qcurve"/>
      <point x="662" y="1708" type="line"/>
      <point x="700.5" y="1669.0" name="inserted"/>
      <point x="773.0" y="1587.0"/>
      <point x="807" y="1544" type="qcurve"/>
      <point x="1044" y="1640" type="line"/>
      <point x="1044" y="1526" type="line"/>
      <point x="870" y="1456" type="line"/>
      <point x="1008.5" y="1254.5" name="inserted"/>
      <point x="1147.0" y="819.5"/>
    </contour>
    <contour>
      <point x="985" y="571" type="qcurve" smooth="yes"/>
      <point x="985" y="799"/>
      <point x="793" y="1044"/>
      <point x="627" y="1044" type="qcurve" smooth="yes"/>
      <point x="465" y="1044"/>
      <point x="287" y="811"/>
      <point x="287" y="588" type="qcurve" smooth="yes"/>
      <point x="287" y="477"/>
      <point x="338" y="295"/>
      <point x="384.0" y="230.5" type="qcurve" smooth="yes" name="inserted"/>
      <point x="430" y="166"/>
      <point x="561" y="96"/>
      <point x="643" y="96" type="qcurve" smooth="yes"/>
      <point x="805" y="96"/>
      <point x="985" y="344"/>
    </contour>
  </outline>
</glyph>
<glyph name="dotlessi" format="1">
  <advance width="690"/>
  <unicode hex="0131"/>
  <outline>
    <contour>
      <point x="410" y="1108" type="qcurve" smooth="yes"/>
      <point x="410" y="221" type="line" smooth="yes"/>
      <point x="410.0" y="165.0" name="inserted"/>
      <point x="455.0" y="109.0"/>
      <point x="500" y="109" type="qcurve" smooth="yes"/>
      <point x="524.5" y="109.0" name="inserted"/>
      <point x="566.5" y="115.0"/>
      <point x="584" y="121" type="qcurve"/>
      <point x="604" y="-2" type="line"/>
      <point x="564.0" y="-15.5" name="inserted"/>
      <point x="478.0" y="-29.0"/>
      <point x="432" y="-29" type="qcurve" smooth="yes"/>
      <point x="341.0" y="-29.0" name="inserted"/>
      <point x="250.0" y="87.0"/>
      <point x="250" y="203" type="qcurve" smooth="yes"/>
      <point x="250" y="1049" type="line"/>
      <point x="127" y="1065" type="line"/>
      <point x="127" y="1171" type="line"/>
      <point x="348" y="1171" type="line" smooth="yes"/>
      <point x="379.0" y="1171.0" name="inserted"/>
      <point x="410.0" y="1139.5"/>
    </contour>
  </outline>
</glyph>
<glyph name="guilsinglright" format="1">
  <advance width="549"/>
  <unicode hex="203A"/>
  <outline>
    <contour>
      <point x="96" y="971" type="line"/>
      <point x="164" y="1018" type="line"/>
      <point x="432" y="705" type="line"/>
      <point x="432" y="610" type="line"/>
      <point x="164" y="301" type="line"/>
      <point x="96" y="344" type="line"/>
      <point x="289" y="657" type="line"/>
    </contour>
  </outline>
</glyph>
<glyph name="trademark" format="1">
  <advance width="1784"/>
  <unicode hex="2122"/>
  <outline>
    <contour>
      <point x="403" y="696" type="line"/>
      <point x="276" y="696" type="line"/>
      <point x="276" y="1507" type="line"/>
      <point x="57" y="1507" type="line"/>
      <point x="57" y="1593" type="line"/>
      <point x="623" y="1593" type="line"/>
      <point x="623" y="1507" type="line"/>
      <point x="403" y="1507" type="line"/>
    </contour>
    <contour>
      <point x="924" y="1593" type="line" smooth="yes"/>
      <point x="944.5" y="1593.0" name="inserted"/>
      <point x="969.0" y="1573.5"/>
      <point x="973" y="1554" type="qcurve"/>
      <point x="1178" y="973" type="line"/>
      <point x="1391" y="1556" type="line" smooth="yes"/>
      <point x="1397.0" y="1574.5" name="inserted"/>
      <point x="1422.5" y="1593.0"/>
      <point x="1442" y="1593" type="qcurve" smooth="yes"/>
      <point x="1575" y="1593" type="line"/>
      <point x="1575" y="696" type="line"/>
      <point x="1501" y="696" type="line"/>
      <point x="1456" y="1427" type="line"/>
      <point x="1235" y="842" type="line"/>
      <point x="1120" y="842" type="line"/>
      <point x="909" y="1427" type="line"/>
      <point x="909" y="696" type="line"/>
      <point x="739" y="696" type="line"/>
      <point x="739" y="1593" type="line"/>
    </contour>
  </outline>
</glyph>
<glyph name="uniFB02" format="1">
  <advance width="1423"/>
  <unicode hex="FB02"/>
  <outline>
    <contour>
      <point x="1143" y="1513" type="qcurve" smooth="yes"/>
      <point x="1143" y="221" type="line" smooth="yes"/>
      <point x="1143.0" y="165.0" name="inserted"/>
      <point x="1187.0" y="109.0"/>
      <point x="1231" y="109" type="qcurve" smooth="yes"/>
      <point x="1246.5" y="109.0" name="inserted"/>
      <point x="1289.5" y="115.0"/>
      <point x="1317" y="121" type="qcurve"/>
      <point x="1335" y="-2" type="line"/>
      <point x="1296.0" y="-15.5" name="inserted"/>
      <point x="1217.5" y="-29.0"/>
      <point x="1178" y="-29" type="qcurve" smooth="yes"/>
      <point x="1079.5" y="-29.0" name="inserted"/>
      <point x="981.0" y="87.0"/>
      <point x="981" y="203" type="qcurve" smooth="yes"/>
      <point x="981" y="1454" type="line"/>
      <point x="874" y="1468" type="line"/>
      <point x="862" y="1434" type="line"/>
      <point x="825.0" y="1458.5" name="inserted"/>
      <point x="732.0" y="1483.0"/>
      <point x="676" y="1483" type="qcurve" smooth="yes"/>
      <point x="566.5" y="1483.0" name="inserted"/>
      <point x="448.5" y="1327.0"/>
      <point x="440" y="1171" type="qcurve"/>
      <point x="682" y="1171" type="line"/>
      <point x="682" y="1059" type="line"/>
      <point x="440" y="1059" type="line"/>
      <point x="440" y="121" type="line"/>
      <point x="643" y="106" type="line"/>
      <point x="643" y="0" type="line"/>
      <point x="135" y="0" type="line"/>
      <point x="135" y="106" type="line"/>
      <point x="279" y="121" type="line"/>
      <point x="279" y="1059" type="line"/>
      <point x="135" y="1059" type="line"/>
      <point x="135" y="1171" type="line"/>
      <point x="279" y="1171" type="line"/>
      <point x="289" y="1386"/>
      <point x="477" y="1608"/>
      <point x="680" y="1608" type="qcurve" smooth="yes"/>
      <point x="727.0" y="1608.0" name="inserted"/>
      <point x="816.0" y="1591.5"/>
      <point x="858" y="1575" type="qcurve"/>
      <point x="1081" y="1577" type="line" smooth="yes"/>
      <point x="1112.0" y="1577.0" name="inserted"/>
      <point x="1143.0" y="1545.0"/>
    </contour>
  </outline>
</glyph>
<glyph name="glyph00112" format="1">
  <advance width="725"/>
  <outline>
    <contour>
      <point x="623" y="1419" type="line"/>
      <point x="102" y="1419" type="line"/>
      <point x="102" y="1556" type="line"/>
      <point x="623" y="1556" type="line"/>
    </contour>
  </outline>
</glyph>
